Info : http://en.wikipedia.org/wiki/Ben-Hur_%281959_film%29


General
Complete name                    : Ben-Hur (1959).mkv
Format                           : Matroska
File size                        : 3.44 GiB
Duration                         : 3h 23mn
Overall bit rate                 : 2 425 Kbps
Writing application              : HandBrake 0.9.4

Video
ID                               : 1
Format                           : AVC
Duration                         : 3h 23mn
Bit rate                         : 1 417 Kbps
Width                            : 720 pixels
Height                           : 368 pixels
Display aspect ratio             : 2.783
Frame rate                       : 25.000 fps
Resolution                       : 8 bits
Colorimetry                      : 4:2:0
Scan type                        : Progressive
Bits/(Pixel*Frame)               : 0.214
Stream size                      : 2.01 GiB (58%)
Writing library                  : x264 core 79


Audio #1
ID                               : 2
Format                           : AC-3
Format/Info                      : Audio Coding 3
Codec ID                         : A_AC3
Duration                         : 3h 23mn
Bit rate mode                    : Constant
Bit rate                         : 384 Kbps
Channel(s)                       : 6 channels
Channel positions                : Front: L C R, Side: L R, LFE
Sampling rate                    : 48.0 KHz
Stream size                      : 559 MiB (16%)
Language                         : English

Audio #2
ID                               : 3
Format                           : AC-3
Format/Info                      : Audio Coding 3
Codec ID                         : A_AC3
Duration                         : 3h 23mn
Bit rate mode                    : Constant
Bit rate                         : 384 Kbps
Channel(s)                       : 6 channels
Channel positions                : Front: L C R, Side: L R, LFE
Sampling rate                    : 48.0 KHz
Stream size                      : 559 MiB (16%)
Language                         : Spanish

Audio #3.........................: Directors Commentary 
ID                               : 4
Format                           : AC-3
Format/Info                      : Audio Coding 3
Codec ID                         : A_AC3
Duration                         : 3h 23mn
Bit rate mode                    : Constant
Bit rate                         : 192 Kbps
Channel(s)                       : 2 channels
Channel positions                : Front: L R
Sampling rate                    : 48.0 KHz
Stream size                      : 279 MiB (8%)
Language                         : English

Text #1
Language                         : English

Text #2
Language                         : Croatian

Text #3
Language                         : Czech

Text #4
Language                         : Danish

Text #5
Language                         : Finnish

Text #6
Language                         : German

Text #7
Language                         : Greek

Text #8
Language                         : Hebrew
 
Text #9
Language                         : Hungarian

Text #10
Language                         : Icelandic

Text #11
Language                         : Norwegian

Text #12
Language                         : Polish

Text #13
Language                         : Portuguese

Text #14
Language                         : Serbian

Text #15
Language                         : Slovenian

Text #16
Language                         : Spanish

Text #17
Language                         : Swedish

Text #18
Language                         : Turkish

Text #19
Language                         : English

Text #20
Language                         : German

Menu
00:00:00.000                     : Chapter 1


